<mxfile host="65bd71144e">
    <diagram id="RD69P7APoGmj4CVlXvpW" name="Page-1">
        <mxGraphModel dx="2740" dy="924" grid="1" gridSize="10" guides="1" tooltips="1" connect="1" arrows="1" fold="1" page="1" pageScale="1" pageWidth="850" pageHeight="1100" math="0" shadow="0">
            <root>
                <mxCell id="0"/>
                <mxCell id="1" parent="0"/>
                <mxCell id="3" value="&lt;p&gt;&lt;/p&gt;&lt;table cellpadding=&quot;4&quot; cellspacing=&quot;0&quot; border=&quot;1&quot; style=&quot;font-size: 1em ; width: 100% ; height: 100%&quot;&gt;&lt;tbody&gt;&lt;tr&gt;&lt;th style=&quot;background-color: rgb(214 , 214 , 214)&quot;&gt;PK&lt;/th&gt;&lt;th style=&quot;background-color: rgb(214 , 214 , 214)&quot;&gt;SK&lt;/th&gt;&lt;td style=&quot;background-color: rgb(214 , 214 , 214)&quot;&gt;&lt;b&gt;GSI1PK&lt;/b&gt;&lt;/td&gt;&lt;td style=&quot;background-color: rgb(214 , 214 , 214)&quot;&gt;&lt;b&gt;GSI1SK&lt;/b&gt;&lt;/td&gt;&lt;td style=&quot;background-color: rgb(214 , 214 , 214)&quot;&gt;&lt;b&gt;GSI2PK&lt;/b&gt;&lt;/td&gt;&lt;td style=&quot;background-color: rgb(214 , 214 , 214)&quot;&gt;&lt;b&gt;GSI2SK&lt;/b&gt;&lt;/td&gt;&lt;td style=&quot;background-color: rgb(214 , 214 , 214)&quot;&gt;&lt;b&gt;Quantity&lt;/b&gt;&lt;br&gt;&lt;/td&gt;&lt;td style=&quot;background-color: rgb(214 , 214 , 214)&quot;&gt;&lt;b&gt;Description&lt;/b&gt;&lt;/td&gt;&lt;td style=&quot;background-color: rgb(214 , 214 , 214)&quot;&gt;&lt;b&gt;Attributes&lt;/b&gt;&lt;br&gt;&lt;/td&gt;&lt;/tr&gt;&lt;tr&gt;&lt;td&gt;WORD#&amp;lt;word id&amp;gt;&lt;/td&gt;&lt;td&gt;WORD#&amp;lt;word id&amp;gt;&lt;/td&gt;&lt;td&gt;&lt;br&gt;&lt;/td&gt;&lt;td&gt;&lt;br&gt;&lt;/td&gt;&lt;td&gt;&lt;br&gt;&lt;/td&gt;&lt;td&gt;&lt;br&gt;&lt;/td&gt;&lt;td&gt;1&lt;/td&gt;&lt;td&gt;Data on the word&amp;nbsp;&lt;/td&gt;&lt;td&gt;&lt;ul&gt;&lt;li style=&quot;text-align: left&quot;&gt;word id&lt;/li&gt;&lt;li style=&quot;text-align: left&quot;&gt;word&lt;/li&gt;&lt;li style=&quot;text-align: left&quot;&gt;accent&lt;/li&gt;&lt;li style=&quot;text-align: left&quot;&gt;defintions&lt;/li&gt;&lt;li style=&quot;text-align: left&quot;&gt;example sentences&lt;/li&gt;&lt;li style=&quot;text-align: left&quot;&gt;conjugations (if verb)&amp;nbsp;&lt;/li&gt;&lt;li style=&quot;text-align: left&quot;&gt;declensions (if noun or adjective)&lt;/li&gt;&lt;li style=&quot;text-align: left&quot;&gt;short forms (if adjective)&lt;/li&gt;&lt;/ul&gt;&lt;/td&gt;&lt;/tr&gt;&lt;tr&gt;&lt;td&gt;WORD#&amp;lt;word id&amp;gt;&lt;/td&gt;&lt;td&gt;BREAKDOWN&lt;/td&gt;&lt;td&gt;USER#&amp;lt;user email&amp;gt;&lt;br&gt;&lt;/td&gt;&lt;td&gt;WORD#&amp;lt;word id&amp;gt;&lt;br&gt;&lt;/td&gt;&lt;td&gt;USER#&amp;lt;user email&amp;gt;&lt;br&gt;&lt;/td&gt;&lt;td&gt;WORD#&amp;lt;word id&amp;gt;&lt;br&gt;&lt;/td&gt;&lt;td&gt;1&lt;/td&gt;&lt;td&gt;The official breakdown for a given word&amp;nbsp;&lt;/td&gt;&lt;td&gt;&lt;ul&gt;&lt;li style=&quot;text-align: left&quot;&gt;word&lt;/li&gt;&lt;li style=&quot;text-align: left&quot;&gt;word id&lt;/li&gt;&lt;li style=&quot;text-align: left&quot;&gt;is verified&lt;/li&gt;&lt;li style=&quot;text-align: left&quot;&gt;is inference (true if breakdown was submitted by AI)&lt;/li&gt;&lt;li style=&quot;text-align: left&quot;&gt;date submitted&lt;/li&gt;&lt;li style=&quot;text-align: left&quot;&gt;date verified&lt;/li&gt;&lt;li style=&quot;text-align: left&quot;&gt;user's email that submitted the breakdown (anonyous if submitted by AI)&lt;/li&gt;&lt;li style=&quot;text-align: left&quot;&gt;array: simplified breakdown items&amp;nbsp;&lt;/li&gt;&lt;/ul&gt;&lt;/td&gt;&lt;/tr&gt;&lt;tr&gt;&lt;td&gt;USER#&amp;lt;user email&amp;gt;&lt;/td&gt;&lt;td&gt;BREAKDOWN#&amp;lt;word id&amp;gt;&lt;/td&gt;&lt;td&gt;&lt;br&gt;&lt;/td&gt;&lt;td&gt;&lt;br&gt;&lt;/td&gt;&lt;td&gt;&lt;br&gt;&lt;/td&gt;&lt;td&gt;&lt;br&gt;&lt;/td&gt;&lt;td&gt;0-inf&lt;/td&gt;&lt;td&gt;A user submitted breakdown for a given word&lt;/td&gt;&lt;td&gt;&lt;div style=&quot;text-align: left&quot;&gt;&lt;ul style=&quot;text-align: center&quot;&gt;&lt;li style=&quot;text-align: left&quot;&gt;word&lt;/li&gt;&lt;li style=&quot;text-align: left&quot;&gt;word id&lt;/li&gt;&lt;li style=&quot;text-align: left&quot;&gt;is verified&lt;/li&gt;&lt;li style=&quot;text-align: left&quot;&gt;is inference (true if breakdown was submitted by AI)&lt;/li&gt;&lt;li style=&quot;text-align: left&quot;&gt;date submitted&lt;/li&gt;&lt;li style=&quot;text-align: left&quot;&gt;date verified&lt;/li&gt;&lt;li style=&quot;text-align: left&quot;&gt;user's email that submitted the breakdown (anonyous if submitted by AI)&lt;/li&gt;&lt;li style=&quot;text-align: left&quot;&gt;array: simplified breakdown items&lt;/li&gt;&lt;/ul&gt;&lt;/div&gt;&lt;/td&gt;&lt;/tr&gt;&lt;tr&gt;&lt;td&gt;WORD#&amp;lt;word id&amp;gt;&lt;br&gt;&lt;/td&gt;&lt;td&gt;BREAKDOWN_ITEM#&amp;lt;morpheme family&amp;gt;#&amp;lt;position&amp;gt;&lt;/td&gt;&lt;td&gt;MORPHEME_FAMILY#&amp;lt;family id&amp;gt;&lt;br&gt;&lt;/td&gt;&lt;td&gt;BREAKDOWN#&amp;lt;user email&amp;gt;&lt;/td&gt;&lt;td&gt;&lt;br&gt;&lt;/td&gt;&lt;td&gt;&lt;br&gt;&lt;/td&gt;&lt;td&gt;0-inf&lt;/td&gt;&lt;td&gt;Breakdown items associated with a breakdown&lt;/td&gt;&lt;td&gt;&lt;div style=&quot;text-align: left&quot;&gt;If Null Breakdown Item&lt;br&gt;&lt;ul&gt;&lt;li&gt;word id&lt;/li&gt;&lt;li&gt;position&lt;/li&gt;&lt;li&gt;morpheme&lt;/li&gt;&lt;li style=&quot;text-align: left&quot;&gt;user's email that submitted the breakdown&lt;/li&gt;&lt;/ul&gt;If Breakdown Item&lt;/div&gt;&lt;div style=&quot;text-align: left&quot;&gt;&lt;ul&gt;&lt;li&gt;word id&lt;/li&gt;&lt;li&gt;position&lt;/li&gt;&lt;li&gt;morpheme&lt;/li&gt;&lt;li&gt;morpheme id&lt;/li&gt;&lt;li&gt;morpheme family id&lt;/li&gt;&lt;li style=&quot;text-align: left&quot;&gt;user's email that submitted the breakdown&lt;/li&gt;&lt;li style=&quot;text-align: left&quot;&gt;breakdown id&lt;/li&gt;&lt;/ul&gt;&lt;/div&gt;&lt;/td&gt;&lt;/tr&gt;&lt;tr&gt;&lt;td&gt;MORPHEME_FAMILY#&amp;lt;family id&amp;gt;&lt;/td&gt;&lt;td&gt;MORPHEME#&amp;lt;morpheme id&amp;gt;&lt;/td&gt;&lt;td&gt;MORPHEME#&amp;lt;morpheme id&amp;gt;&lt;br&gt;&lt;/td&gt;&lt;td&gt;MORPHEME#&amp;lt;morpheme id&amp;gt;&lt;br&gt;&lt;/td&gt;&lt;td&gt;&lt;br&gt;&lt;/td&gt;&lt;td&gt;&lt;br&gt;&lt;/td&gt;&lt;td&gt;1-inf&lt;/td&gt;&lt;td&gt;A Russian morpheme with data&lt;/td&gt;&lt;td&gt;&lt;ul&gt;&lt;li style=&quot;text-align: left&quot;&gt;family id&lt;/li&gt;&lt;li style=&quot;text-align: left&quot;&gt;morpheme&lt;/li&gt;&lt;li style=&quot;text-align: left&quot;&gt;morpheme id&lt;/li&gt;&lt;/ul&gt;&lt;/td&gt;&lt;/tr&gt;&lt;tr&gt;&lt;td&gt;MORPHEME_FAMILY#&amp;lt;family id&amp;gt;&lt;br&gt;&lt;/td&gt;&lt;td&gt;MORPHEME_FAMILY#&amp;lt;family id&amp;gt;&lt;br&gt;&lt;/td&gt;&lt;td&gt;&lt;br&gt;&lt;/td&gt;&lt;td&gt;&lt;br&gt;&lt;/td&gt;&lt;td&gt;&lt;br&gt;&lt;/td&gt;&lt;td&gt;&lt;br&gt;&lt;/td&gt;&lt;td&gt;1&lt;/td&gt;&lt;td&gt;A family of related morphemes&lt;/td&gt;&lt;td style=&quot;border: 1px solid rgb(0 , 0 , 0) ; border-collapse: collapse&quot;&gt;&lt;ul&gt;&lt;li style=&quot;text-align: left&quot;&gt;family id&lt;/li&gt;&lt;li style=&quot;text-align: left&quot;&gt;family meaning/definition&lt;/li&gt;&lt;li style=&quot;text-align: left&quot;&gt;level of difficultly&lt;/li&gt;&lt;li style=&quot;text-align: left&quot;&gt;morphemes&lt;/li&gt;&lt;li style=&quot;text-align: left&quot;&gt;type of word&lt;/li&gt;&lt;li style=&quot;text-align: left&quot;&gt;word pos (parts of speech)&lt;/li&gt;&lt;/ul&gt;&lt;/td&gt;&lt;/tr&gt;&lt;tr&gt;&lt;td&gt;USER#&amp;lt;user email&amp;gt;&lt;/td&gt;&lt;td&gt;USER#&amp;lt;user email&amp;gt;&lt;/td&gt;&lt;td&gt;&lt;br&gt;&lt;/td&gt;&lt;td&gt;&lt;br&gt;&lt;/td&gt;&lt;td&gt;&lt;br&gt;&lt;/td&gt;&lt;td&gt;&lt;br&gt;&lt;/td&gt;&lt;td&gt;1&lt;/td&gt;&lt;td&gt;A user of Rootski&lt;/td&gt;&lt;td&gt;&lt;ul&gt;&lt;li style=&quot;text-align: left&quot;&gt;user email&lt;/li&gt;&lt;li style=&quot;text-align: left&quot;&gt;is admin&lt;/li&gt;&lt;/ul&gt;&lt;/td&gt;&lt;/tr&gt;&lt;/tbody&gt;&lt;/table&gt;&lt;p&gt;&lt;/p&gt; " style="verticalAlign=top;align=center;overflow=fill;fontSize=12;fontFamily=Helvetica;html=1;container=1;sketch=1;labelBackgroundColor=#FFFFFF;fontColor=#000000;whiteSpace=wrap;" parent="1" vertex="1">
                    <mxGeometry x="-440" y="90" width="1860" height="1260" as="geometry">
                        <mxRectangle x="-1260" y="150" width="740" height="100" as="alternateBounds"/>
                    </mxGeometry>
                </mxCell>
            </root>
        </mxGraphModel>
    </diagram>
</mxfile>